<svg width="1200" height="630" viewBox="0 0 1200 630" fill="none" xmlns="http://www.w3.org/2000/svg">
<g clip-path="url(#clip0_2003_2)">
<path d="M1200 0H0V630H1200V0Z" fill="black"/>
<path d="M56.8965 195.517C80.8923 195.517 100.345 176.065 100.345 152.069C100.345 128.073 80.8923 108.621 56.8965 108.621C32.9007 108.621 13.4482 128.073 13.4482 152.069C13.4482 176.065 32.9007 195.517 56.8965 195.517Z" fill="#131313" stroke="black" stroke-width="2.08" stroke-miterlimit="1.5" stroke-linecap="round" stroke-linejoin="round"/>
<path d="M56.8965 521.379C80.8923 521.379 100.345 501.927 100.345 477.931C100.345 453.935 80.8923 434.483 56.8965 434.483C32.9007 434.483 13.4482 453.935 13.4482 477.931C13.4482 501.927 32.9007 521.379 56.8965 521.379Z" fill="#131313" stroke="black" stroke-width="2.08" stroke-miterlimit="1.5" stroke-linecap="round" stroke-linejoin="round"/>
<path d="M165.517 86.8965C189.513 86.8965 208.965 67.4441 208.965 43.4483C208.965 19.4524 189.513 0 165.517 0C141.521 0 122.069 19.4524 122.069 43.4483C122.069 67.4441 141.521 86.8965 165.517 86.8965Z" fill="#131313" stroke="black" stroke-width="2.08" stroke-miterlimit="1.5" stroke-linecap="round" stroke-linejoin="round"/>
<path d="M165.517 412.759C189.513 412.759 208.965 393.306 208.965 369.31C208.965 345.315 189.513 325.862 165.517 325.862C141.521 325.862 122.069 345.315 122.069 369.31C122.069 393.306 141.521 412.759 165.517 412.759Z" fill="#131313" stroke="black" stroke-width="2.08" stroke-miterlimit="1.5" stroke-linecap="round" stroke-linejoin="round"/>
<path d="M165.517 630C189.513 630 208.965 610.548 208.965 586.552C208.965 562.556 189.513 543.104 165.517 543.104C141.521 543.104 122.069 562.556 122.069 586.552C122.069 610.548 141.521 630 165.517 630Z" fill="#131313" stroke="black" stroke-width="2.08" stroke-miterlimit="1.5" stroke-linecap="round" stroke-linejoin="round"/>
<path d="M274.138 304.138C298.134 304.138 317.586 284.685 317.586 260.69C317.586 236.694 298.134 217.241 274.138 217.241C250.142 217.241 230.689 236.694 230.689 260.69C230.689 284.685 250.142 304.138 274.138 304.138Z" fill="#131313" stroke="black" stroke-width="2.08" stroke-miterlimit="1.5" stroke-linecap="round" stroke-linejoin="round"/>
<path d="M382.759 630C406.755 630 426.207 610.548 426.207 586.552C426.207 562.556 406.755 543.104 382.759 543.104C358.763 543.104 339.311 562.556 339.311 586.552C339.311 610.548 358.763 630 382.759 630Z" fill="#131313" stroke="black" stroke-width="2.08" stroke-miterlimit="1.5" stroke-linecap="round" stroke-linejoin="round"/>
<path d="M600 630C623.996 630 643.448 610.548 643.448 586.552C643.448 562.556 623.996 543.104 600 543.104C576.004 543.104 556.552 562.556 556.552 586.552C556.552 610.548 576.004 630 600 630Z" fill="#131313" stroke="black" stroke-width="2.08" stroke-miterlimit="1.5" stroke-linecap="round" stroke-linejoin="round"/>
<path d="M817.241 630C841.237 630 860.689 610.547 860.689 586.552C860.689 562.556 841.237 543.103 817.241 543.103C793.245 543.103 773.793 562.556 773.793 586.552C773.793 610.547 793.245 630 817.241 630Z" fill="#131313" stroke="black" stroke-width="2.08" stroke-miterlimit="1.5" stroke-linecap="round" stroke-linejoin="round"/>
<path d="M925.862 304.138C949.858 304.138 969.311 284.685 969.311 260.69C969.311 236.694 949.858 217.241 925.862 217.241C901.867 217.241 882.414 236.694 882.414 260.69C882.414 284.685 901.867 304.138 925.862 304.138Z" fill="#131313" stroke="black" stroke-width="2.08" stroke-miterlimit="1.5" stroke-linecap="round" stroke-linejoin="round"/>
<path d="M1034.48 86.8965C1058.48 86.8965 1077.93 67.4441 1077.93 43.4483C1077.93 19.4524 1058.48 0 1034.48 0C1010.49 0 991.035 19.4524 991.035 43.4483C991.035 67.4441 1010.49 86.8965 1034.48 86.8965Z" fill="#131313" stroke="black" stroke-width="2.08" stroke-miterlimit="1.5" stroke-linecap="round" stroke-linejoin="round"/>
<path d="M1034.48 412.759C1058.48 412.759 1077.93 393.306 1077.93 369.31C1077.93 345.315 1058.48 325.862 1034.48 325.862C1010.49 325.862 991.035 345.315 991.035 369.31C991.035 393.306 1010.49 412.759 1034.48 412.759Z" fill="#131313" stroke="black" stroke-width="2.08" stroke-miterlimit="1.5" stroke-linecap="round" stroke-linejoin="round"/>
<path d="M1034.48 630C1058.48 630 1077.93 610.547 1077.93 586.552C1077.93 562.556 1058.48 543.103 1034.48 543.103C1010.49 543.103 991.035 562.556 991.035 586.552C991.035 610.547 1010.49 630 1034.48 630Z" fill="#131313" stroke="black" stroke-width="2.08" stroke-miterlimit="1.5" stroke-linecap="round" stroke-linejoin="round"/>
<path d="M1143.1 195.517C1167.1 195.517 1186.55 176.065 1186.55 152.069C1186.55 128.073 1167.1 108.621 1143.1 108.621C1119.11 108.621 1099.66 128.073 1099.66 152.069C1099.66 176.065 1119.11 195.517 1143.1 195.517Z" fill="#131313" stroke="black" stroke-width="2.08" stroke-miterlimit="1.5" stroke-linecap="round" stroke-linejoin="round"/>
<path d="M1143.1 521.379C1167.1 521.379 1186.55 501.927 1186.55 477.931C1186.55 453.935 1167.1 434.483 1143.1 434.483C1119.11 434.483 1099.66 453.935 1099.66 477.931C1099.66 501.927 1119.11 521.379 1143.1 521.379Z" fill="#131313" stroke="black" stroke-width="2.08" stroke-miterlimit="1.5" stroke-linecap="round" stroke-linejoin="round"/>
<path fill-rule="evenodd" clip-rule="evenodd" d="M447.931 152.069C447.931 128.089 467.399 108.621 491.38 108.621C515.36 108.621 534.828 128.089 534.828 152.069C534.828 176.049 515.36 195.517 491.38 195.517C478.068 195.517 465.682 199.517 455.361 206.379C448.116 211.197 441.886 217.426 437.069 224.671C430.207 234.992 426.207 247.378 426.207 260.69C426.207 284.67 406.739 304.138 382.759 304.138C358.779 304.138 339.311 284.67 339.311 260.69C339.311 236.71 358.779 217.241 382.759 217.241C396.07 217.241 408.456 213.242 418.777 206.379C426.022 201.562 432.252 195.333 437.069 188.088C443.932 177.766 447.931 165.38 447.931 152.069Z" fill="#131313" stroke="black" stroke-width="2.08" stroke-miterlimit="1.5" stroke-linecap="round" stroke-linejoin="round"/>
<path fill-rule="evenodd" clip-rule="evenodd" d="M665.172 152.069C665.172 128.089 684.64 108.621 708.621 108.621C732.601 108.621 752.069 128.089 752.069 152.069C752.069 165.38 756.068 177.766 762.931 188.088C767.748 195.333 773.978 201.562 781.223 206.379C791.544 213.242 803.93 217.241 817.241 217.241C841.222 217.241 860.69 236.71 860.69 260.69C860.69 284.67 841.222 304.138 817.241 304.138C793.261 304.138 773.793 284.67 773.793 260.69C773.793 247.378 769.794 234.992 762.931 224.671C758.114 217.426 751.884 211.197 744.639 206.379C734.318 199.517 721.932 195.517 708.621 195.517C684.64 195.517 665.172 176.049 665.172 152.069Z" fill="#131313" stroke="black" stroke-width="2.08" stroke-miterlimit="1.5" stroke-linecap="round" stroke-linejoin="round"/>
<path fill-rule="evenodd" clip-rule="evenodd" d="M534.827 477.931C534.827 501.911 515.359 521.379 491.379 521.379C467.399 521.379 447.931 501.911 447.931 477.931C447.931 464.62 443.931 452.234 437.069 441.912C432.251 434.667 426.022 428.438 418.777 423.621C408.456 416.758 396.07 412.759 382.758 412.759C369.447 412.759 357.061 416.758 346.74 423.621C339.495 428.438 333.265 434.667 328.448 441.912C321.585 452.234 317.586 464.62 317.586 477.931C317.586 501.911 298.118 521.379 274.138 521.379C250.158 521.379 230.689 501.911 230.689 477.931C230.689 453.951 250.158 434.483 274.138 434.483C287.449 434.483 299.835 430.483 310.156 423.621C317.401 418.803 323.631 412.574 328.448 405.329C335.311 395.008 339.31 382.622 339.31 369.31C339.31 345.33 358.778 325.862 382.758 325.862C406.739 325.862 426.207 345.33 426.207 369.31C426.207 382.622 430.206 395.008 437.069 405.329C441.886 412.574 448.115 418.803 455.36 423.621C465.682 430.483 478.068 434.483 491.379 434.483C515.359 434.483 534.827 453.951 534.827 477.931Z" fill="#131313" stroke="black" stroke-width="2.08" stroke-miterlimit="1.5" stroke-linecap="round" stroke-linejoin="round"/>
<path fill-rule="evenodd" clip-rule="evenodd" d="M969.31 477.931C969.31 501.911 949.842 521.379 925.862 521.379C901.882 521.379 882.414 501.911 882.414 477.931C882.414 464.62 878.414 452.234 871.552 441.912C866.734 434.667 860.505 428.438 853.26 423.621C842.939 416.758 830.553 412.759 817.241 412.759C803.93 412.759 791.544 416.758 781.223 423.621C773.978 428.438 767.748 434.667 762.931 441.912C756.068 452.234 752.069 464.62 752.069 477.931C752.069 501.911 732.601 521.379 708.621 521.379C684.64 521.379 665.172 501.911 665.172 477.931C665.172 453.951 684.64 434.483 708.621 434.483C721.932 434.483 734.318 430.483 744.639 423.621C751.884 418.803 758.114 412.574 762.931 405.329C769.794 395.008 773.793 382.622 773.793 369.31C773.793 345.33 793.261 325.862 817.241 325.862C841.222 325.862 860.69 345.33 860.69 369.31C860.69 382.622 864.689 395.008 871.552 405.329C876.369 412.574 882.598 418.803 889.843 423.621C900.165 430.483 912.551 434.483 925.862 434.483C949.842 434.483 969.31 453.951 969.31 477.931Z" fill="#131313" stroke="black" stroke-width="2.08" stroke-miterlimit="1.5" stroke-linecap="round" stroke-linejoin="round"/>
<path fill-rule="evenodd" clip-rule="evenodd" d="M534.828 586.552C534.828 610.532 515.36 630 491.38 630C467.399 630 447.931 610.532 447.931 586.552C447.931 573.24 443.932 560.854 437.069 550.533C432.252 543.288 426.022 537.059 418.777 532.241C408.456 525.379 396.07 521.379 382.759 521.379C358.779 521.379 339.311 501.911 339.311 477.931C339.311 453.951 358.779 434.483 382.759 434.483C406.739 434.483 426.207 453.951 426.207 477.931C426.207 491.243 430.207 503.629 437.069 513.95C441.886 521.195 448.116 527.424 455.361 532.241C465.682 539.104 478.068 543.103 491.38 543.103C515.36 543.103 534.828 562.572 534.828 586.552Z" fill="#131313" stroke="black" stroke-width="2.08" stroke-miterlimit="1.5" stroke-linecap="round" stroke-linejoin="round"/>
<path fill-rule="evenodd" clip-rule="evenodd" d="M752.069 586.552C752.069 610.532 732.601 630 708.621 630C684.64 630 665.172 610.532 665.172 586.552C665.172 562.572 684.64 543.103 708.621 543.103C721.932 543.103 734.318 539.104 744.639 532.241C751.884 527.424 758.114 521.195 762.931 513.95C769.794 503.629 773.793 491.243 773.793 477.931C773.793 453.951 793.261 434.483 817.241 434.483C841.222 434.483 860.69 453.951 860.69 477.931C860.69 501.911 841.222 521.379 817.241 521.379C803.93 521.379 791.544 525.379 781.223 532.241C773.978 537.059 767.748 543.288 762.931 550.533C756.068 560.854 752.069 573.24 752.069 586.552Z" fill="#131313" stroke="black" stroke-width="2.08" stroke-miterlimit="1.5" stroke-linecap="round" stroke-linejoin="round"/>
<path fill-rule="evenodd" clip-rule="evenodd" d="M447.931 43.4483C447.931 19.4681 467.399 0 491.38 0C515.36 0 534.828 19.4681 534.828 43.4483C534.828 67.4285 515.36 86.8966 491.38 86.8966C478.068 86.8966 465.682 90.896 455.361 97.7586C448.116 102.576 441.886 108.805 437.069 116.05C430.207 126.371 426.207 138.758 426.207 152.069C426.207 176.049 406.739 195.517 382.759 195.517C358.779 195.517 339.311 176.049 339.311 152.069C339.311 128.089 358.779 108.621 382.759 108.621C396.07 108.621 408.456 104.621 418.777 97.7586C426.022 92.9413 432.252 86.7119 437.069 79.4669C443.932 69.1458 447.931 56.7597 447.931 43.4483Z" fill="#131313" stroke="black" stroke-width="2.08" stroke-miterlimit="1.5" stroke-linecap="round" stroke-linejoin="round"/>
<path fill-rule="evenodd" clip-rule="evenodd" d="M665.172 43.4483C665.172 19.4681 684.64 0 708.621 0C732.601 0 752.069 19.4681 752.069 43.4483C752.069 56.7597 756.068 69.1458 762.931 79.4669C767.748 86.7119 773.978 92.9413 781.223 97.7586C791.544 104.621 803.93 108.621 817.241 108.621C841.222 108.621 860.69 128.089 860.69 152.069C860.69 176.049 841.222 195.517 817.241 195.517C793.261 195.517 773.793 176.049 773.793 152.069C773.793 138.758 769.794 126.371 762.931 116.05C758.114 108.805 751.884 102.576 744.639 97.7586C734.318 90.896 721.932 86.8966 708.621 86.8966C684.64 86.8966 665.172 67.4285 665.172 43.4483Z" fill="#131313" stroke="black" stroke-width="2.08" stroke-miterlimit="1.5" stroke-linecap="round" stroke-linejoin="round"/>
<path fill-rule="evenodd" clip-rule="evenodd" d="M556.552 43.4483C556.552 19.4681 576.02 0 600 0C623.98 0 643.448 19.4681 643.448 43.4483C643.448 67.4285 623.98 86.8966 600 86.8966C576.02 86.8966 556.552 67.4285 556.552 43.4483Z" fill="#131313" stroke="black" stroke-width="2.08" stroke-miterlimit="1.5" stroke-linecap="round" stroke-linejoin="round"/>
<path fill-rule="evenodd" clip-rule="evenodd" d="M339.31 43.4483C339.31 19.4681 358.778 0 382.759 0C406.739 0 426.207 19.4681 426.207 43.4483C426.207 67.4285 406.739 86.8966 382.759 86.8966C369.447 86.8966 357.061 90.896 346.74 97.7586C339.495 102.576 333.265 108.805 328.448 116.05C321.586 126.371 317.586 138.758 317.586 152.069C317.586 176.049 298.118 195.517 274.138 195.517C260.826 195.517 248.44 199.517 238.119 206.379C230.874 211.197 224.645 217.426 219.827 224.671C212.965 234.992 208.965 247.378 208.965 260.69C208.965 274.001 212.965 286.387 219.827 296.708C224.645 303.953 230.874 310.183 238.119 315C248.44 321.863 260.826 325.862 274.138 325.862C298.118 325.862 317.586 345.33 317.586 369.31C317.586 393.291 298.118 412.759 274.138 412.759C250.158 412.759 230.69 393.291 230.69 369.31C230.69 355.999 226.69 343.613 219.827 333.292C215.01 326.047 208.781 319.817 201.536 315C191.215 308.137 178.829 304.138 165.517 304.138C141.537 304.138 122.069 284.67 122.069 260.69C122.069 236.709 141.537 217.241 165.517 217.241C178.829 217.241 191.215 213.242 201.536 206.379C208.781 201.562 215.01 195.333 219.827 188.088C226.69 177.766 230.69 165.38 230.69 152.069C230.69 128.089 250.158 108.621 274.138 108.621C287.449 108.621 299.835 104.621 310.156 97.7586C317.401 92.9413 323.631 86.7119 328.448 79.4669C335.311 69.1458 339.31 56.7597 339.31 43.4483Z" fill="#131313" stroke="black" stroke-width="2.08" stroke-miterlimit="1.5" stroke-linecap="round" stroke-linejoin="round"/>
<path fill-rule="evenodd" clip-rule="evenodd" d="M773.793 43.4483C773.793 19.4681 793.261 0 817.241 0C841.221 0 860.69 19.4681 860.69 43.4483C860.69 56.7597 864.689 69.1458 871.552 79.4669C876.369 86.7119 882.598 92.9413 889.843 97.7586C900.164 104.621 912.55 108.621 925.862 108.621C949.842 108.621 969.31 128.089 969.31 152.069C969.31 165.38 973.31 177.766 980.172 188.088C984.99 195.333 991.219 201.562 998.464 206.379C1008.79 213.242 1021.17 217.241 1034.48 217.241C1058.46 217.241 1077.93 236.709 1077.93 260.69C1077.93 284.67 1058.46 304.138 1034.48 304.138C1021.17 304.138 1008.79 308.137 998.464 315C991.219 319.817 984.99 326.047 980.172 333.292C973.31 343.613 969.31 355.999 969.31 369.31C969.31 393.291 949.842 412.759 925.862 412.759C901.882 412.759 882.414 393.291 882.414 369.31C882.414 345.33 901.882 325.862 925.862 325.862C939.173 325.862 951.559 321.863 961.881 315C969.126 310.183 975.355 303.953 980.172 296.708C987.035 286.387 991.034 274.001 991.034 260.69C991.034 247.378 987.035 234.992 980.172 224.671C975.355 217.426 969.126 211.197 961.881 206.379C951.559 199.517 939.173 195.517 925.862 195.517C901.882 195.517 882.414 176.049 882.414 152.069C882.414 138.758 878.414 126.371 871.552 116.05C866.734 108.805 860.505 102.576 853.26 97.7586C842.939 90.896 830.553 86.8966 817.241 86.8966C793.261 86.8966 773.793 67.4285 773.793 43.4483Z" fill="#131313" stroke="black" stroke-width="2.08" stroke-miterlimit="1.5" stroke-linecap="round" stroke-linejoin="round"/>
<path fill-rule="evenodd" clip-rule="evenodd" d="M1143.1 412.759C1129.79 412.759 1117.41 416.758 1107.09 423.621C1099.84 428.438 1093.61 434.667 1088.79 441.912C1081.93 452.234 1077.93 464.62 1077.93 477.931C1077.93 491.242 1081.93 503.629 1088.79 513.95C1093.61 521.195 1099.84 527.424 1107.09 532.241C1117.41 539.104 1129.79 543.103 1143.1 543.103C1167.08 543.103 1186.55 562.572 1186.55 586.552C1186.55 610.532 1167.08 630 1143.1 630C1119.12 630 1099.66 610.532 1099.66 586.552C1099.66 573.24 1095.66 560.854 1088.79 550.533C1083.98 543.288 1077.75 537.059 1070.5 532.241C1060.18 525.379 1047.79 521.379 1034.48 521.379C1021.17 521.379 1008.79 525.379 998.464 532.241C991.219 537.059 984.99 543.288 980.173 550.533C973.31 560.854 969.311 573.24 969.311 586.552C969.311 610.532 949.843 630 925.862 630C901.882 630 882.414 610.532 882.414 586.552C882.414 562.572 901.882 543.103 925.862 543.103C939.174 543.103 951.56 539.104 961.881 532.241C969.126 527.424 975.355 521.195 980.173 513.95C987.035 503.629 991.035 491.242 991.035 477.931C991.035 453.951 1010.5 434.483 1034.48 434.483C1047.79 434.483 1060.18 430.483 1070.5 423.621C1077.75 418.803 1083.98 412.574 1088.79 405.329C1095.66 395.008 1099.66 382.622 1099.66 369.31C1099.66 345.33 1119.12 325.862 1143.1 325.862C1167.08 325.862 1186.55 345.33 1186.55 369.31C1186.55 393.291 1167.08 412.759 1143.1 412.759Z" fill="#131313" stroke="black" stroke-width="2.08" stroke-miterlimit="1.5" stroke-linecap="round" stroke-linejoin="round"/>
<path fill-rule="evenodd" clip-rule="evenodd" d="M230.69 586.552C230.69 573.24 226.69 560.854 219.828 550.533C215.01 543.288 208.781 537.059 201.536 532.241C191.215 525.379 178.829 521.379 165.517 521.379C152.206 521.379 139.82 525.379 129.499 532.241C122.254 537.059 116.024 543.288 111.207 550.533C104.344 560.854 100.345 573.24 100.345 586.552C100.345 610.532 80.8767 630 56.8965 630C32.9163 630 13.4482 610.532 13.4482 586.552C13.4482 562.572 32.9163 543.103 56.8965 543.103C70.208 543.103 82.594 539.104 92.9151 532.241C100.16 527.424 106.39 521.195 111.207 513.95C118.07 503.629 122.069 491.242 122.069 477.931C122.069 464.62 118.07 452.234 111.207 441.912C106.39 434.667 100.16 428.438 92.9151 423.621C82.594 416.758 70.208 412.759 56.8965 412.759C32.9163 412.759 13.4482 393.291 13.4482 369.31C13.4482 345.33 32.9163 325.862 56.8965 325.862C80.8767 325.862 100.345 345.33 100.345 369.31C100.345 382.622 104.344 395.008 111.207 405.329C116.024 412.574 122.254 418.803 129.499 423.621C139.82 430.483 152.206 434.483 165.517 434.483C189.497 434.483 208.965 453.951 208.965 477.931C208.965 491.242 212.965 503.629 219.828 513.95C224.645 521.195 230.874 527.424 238.119 532.241C248.44 539.104 260.826 543.103 274.138 543.103C298.118 543.103 317.586 562.572 317.586 586.552C317.586 610.532 298.118 630 274.138 630C250.158 630 230.69 610.532 230.69 586.552Z" fill="#131313" stroke="black" stroke-width="2.08" stroke-miterlimit="1.5" stroke-linecap="round" stroke-linejoin="round"/>
<path fill-rule="evenodd" clip-rule="evenodd" d="M56.8965 86.8966C32.9163 86.8966 13.4482 67.4285 13.4482 43.4483C13.4482 19.4681 32.9163 0 56.8965 0C80.8767 0 100.345 19.4681 100.345 43.4483C100.345 56.7597 104.344 69.1458 111.207 79.4669C116.024 86.7119 122.254 92.9413 129.499 97.7586C139.82 104.621 152.206 108.621 165.517 108.621C178.829 108.621 191.215 104.621 201.536 97.7586C208.781 92.9413 215.01 86.7119 219.828 79.4669C226.69 69.1458 230.69 56.7597 230.69 43.4483C230.69 19.4681 250.158 0 274.138 0C298.118 0 317.586 19.4681 317.586 43.4483C317.586 67.4285 298.118 86.8966 274.138 86.8966C260.826 86.8966 248.44 90.896 238.119 97.7586C230.874 102.576 224.645 108.805 219.828 116.05C212.965 126.371 208.965 138.758 208.965 152.069C208.965 176.049 189.497 195.517 165.517 195.517C152.206 195.517 139.82 199.517 129.499 206.379C122.254 211.197 116.024 217.426 111.207 224.671C104.344 234.992 100.345 247.378 100.345 260.69C100.345 284.67 80.8767 304.138 56.8965 304.138C32.9163 304.138 13.4482 284.67 13.4482 260.69C13.4482 236.709 32.9163 217.241 56.8965 217.241C70.208 217.241 82.594 213.242 92.9151 206.379C100.16 201.562 106.39 195.333 111.207 188.088C118.07 177.766 122.069 165.38 122.069 152.069C122.069 138.758 118.07 126.371 111.207 116.05C106.39 108.805 100.16 102.576 92.9151 97.7586C82.594 90.896 70.208 86.8966 56.8965 86.8966Z" fill="#131313" stroke="black" stroke-width="2.08" stroke-miterlimit="1.5" stroke-linecap="round" stroke-linejoin="round"/>
<path fill-rule="evenodd" clip-rule="evenodd" d="M969.311 43.4483C969.311 56.7597 973.31 69.1458 980.173 79.4669C984.99 86.7119 991.219 92.9413 998.464 97.7586C1008.79 104.621 1021.17 108.621 1034.48 108.621C1047.79 108.621 1060.18 104.621 1070.5 97.7586C1077.75 92.9413 1083.98 86.7119 1088.79 79.4669C1095.66 69.1458 1099.66 56.7597 1099.66 43.4483C1099.66 19.4681 1119.12 0 1143.1 0C1167.08 0 1186.55 19.4681 1186.55 43.4483C1186.55 67.4285 1167.08 86.8966 1143.1 86.8966C1129.79 86.8966 1117.41 90.896 1107.09 97.7586C1099.84 102.576 1093.61 108.805 1088.79 116.05C1081.93 126.371 1077.93 138.758 1077.93 152.069C1077.93 165.38 1081.93 177.766 1088.79 188.088C1093.61 195.333 1099.84 201.562 1107.09 206.379C1117.41 213.242 1129.79 217.241 1143.1 217.241C1167.08 217.241 1186.55 236.709 1186.55 260.69C1186.55 284.67 1167.08 304.138 1143.1 304.138C1119.12 304.138 1099.66 284.67 1099.66 260.69C1099.66 247.378 1095.66 234.992 1088.79 224.671C1083.98 217.426 1077.75 211.197 1070.5 206.379C1060.18 199.517 1047.79 195.517 1034.48 195.517C1010.5 195.517 991.035 176.049 991.035 152.069C991.035 138.758 987.035 126.371 980.173 116.05C975.355 108.805 969.126 102.576 961.881 97.7586C951.56 90.896 939.174 86.8966 925.862 86.8966C901.882 86.8966 882.414 67.4285 882.414 43.4483C882.414 19.4681 901.882 0 925.862 0C949.843 0 969.311 19.4681 969.311 43.4483Z" fill="#131313" stroke="black" stroke-width="2.08" stroke-miterlimit="1.5" stroke-linecap="round" stroke-linejoin="round"/>
<path fill-rule="evenodd" clip-rule="evenodd" d="M628.804 288.609C622.604 283.141 615.216 279.738 607.537 278.398C606.667 273.41 606.668 268.298 607.54 263.31C615.258 261.96 622.68 258.525 628.897 253.005C629.546 252.429 630.182 251.83 630.804 251.208C631.426 250.587 632.025 249.951 632.601 249.302C638.121 243.085 641.555 235.662 642.905 227.945C647.905 227.071 653.029 227.071 658.028 227.948C659.386 235.697 662.847 243.148 668.41 249.379C668.962 249.997 669.534 250.603 670.127 251.196C670.72 251.789 671.326 252.361 671.944 252.913C678.175 258.476 685.626 261.936 693.375 263.295C694.256 268.317 694.252 273.465 693.366 278.487C685.488 279.878 677.919 283.443 671.631 289.182C671.137 289.633 670.65 290.098 670.172 290.576C669.694 291.055 669.229 291.541 668.777 292.036C663.038 298.324 659.473 305.892 658.083 313.77C653.072 314.655 647.936 314.66 642.925 313.786C641.585 306.107 638.182 298.719 632.714 292.519C632.108 291.832 631.477 291.16 630.82 290.503C630.164 289.846 629.491 289.215 628.804 288.609Z" fill="white"/>
<path fill-rule="evenodd" clip-rule="evenodd" d="M557.285 229.097C558.756 236.355 562.086 243.309 567.276 249.193C567.881 249.88 568.513 250.552 569.169 251.209C569.826 251.865 570.498 252.497 571.185 253.102C579.662 263.426 579.631 278.417 571.092 288.706C570.443 289.283 569.807 289.882 569.186 290.503C568.564 291.125 567.965 291.761 567.389 292.41C561.869 298.627 558.434 306.05 557.084 313.767C556.206 318.787 556.211 323.932 557.097 328.951C558.493 336.847 562.072 344.431 567.836 350.728C568.273 351.205 568.723 351.676 569.186 352.138C569.648 352.601 570.118 353.051 570.596 353.488C576.892 359.252 584.477 362.831 592.373 364.226C597.415 365.117 602.584 365.118 607.626 364.228C615.505 362.837 623.073 359.272 629.361 353.533C629.856 353.081 630.342 352.617 630.82 352.138C631.299 351.66 631.763 351.173 632.215 350.679C642.514 341.752 657.8 341.591 668.279 350.196C668.885 350.883 669.516 351.555 670.172 352.212C670.829 352.868 671.501 353.499 672.188 354.105C681.215 365.098 680.595 381.381 670.329 391.647C659.867 402.108 643.157 402.553 632.165 392.979C631.727 392.502 631.278 392.031 630.815 391.569C630.353 391.106 629.882 390.656 629.405 390.219C623.108 384.456 615.524 380.876 607.627 379.481C602.586 378.59 597.416 378.59 592.374 379.48C584.496 380.87 576.928 384.435 570.639 390.174C570.145 390.626 569.658 391.091 569.18 391.569C568.702 392.047 568.237 392.534 567.786 393.028C556.793 402.557 540.118 402.098 529.672 391.652C519.371 381.351 518.782 364.991 527.905 353.998C528.555 353.422 529.19 352.823 529.812 352.201C530.434 351.579 531.033 350.943 531.609 350.294C537.129 344.077 540.564 336.655 541.914 328.938C542.792 323.917 542.787 318.772 541.9 313.753C540.505 305.857 536.926 298.273 531.162 291.977C530.724 291.499 530.275 291.029 529.812 290.566C529.35 290.104 528.879 289.653 528.402 289.216C518.828 278.224 519.273 261.514 529.734 251.052C535.991 244.795 539.947 237.102 541.6 229.03C541.673 228.674 541.742 228.317 541.805 227.959C541.821 227.875 541.836 227.79 541.85 227.705C543.689 227.455 546.519 227.295 549.69 227.295C552.579 227.295 555.185 227.428 557.016 227.64C557.032 227.736 557.048 227.831 557.065 227.926C557.133 228.317 557.206 228.708 557.285 229.097Z" fill="white"/>
<path fill-rule="evenodd" clip-rule="evenodd" d="M600.008 298.618C608.027 298.623 614.536 305.135 614.536 313.155C614.536 319.194 610.846 324.377 605.6 326.572L608.744 342.242H591.283L594.416 326.579C589.161 324.388 585.463 319.2 585.463 313.155C585.463 305.132 591.977 298.618 600 298.618L600.008 298.618ZM600.006 298.69L600 298.659L599.994 298.69H600H600.006Z" fill="white" stroke="black" stroke-width="2.08341" stroke-miterlimit="1.5" stroke-linecap="round" stroke-linejoin="round"/>
<path fill-rule="evenodd" clip-rule="evenodd" d="M788.154 430C791.826 430 795.348 432.095 797.945 435.823C800.541 439.552 802 444.609 802 449.882C802 449.924 802 449.966 802 450.008C802 461.049 795.766 470 788.077 470C727.4 470 486.412 470 425.86 470C422.185 470 418.659 467.903 416.059 464.171C413.46 460.438 412 455.376 412 450.098C412 450.054 412 450.009 412 449.965C412 444.67 413.465 439.592 416.073 435.848C418.68 432.103 422.217 430 425.904 430C486.553 430 727.619 430 788.154 430Z" fill="black"/>
<path d="M444.083 456.233C442.528 456.233 441.172 455.983 440.017 455.483C438.872 454.972 437.983 454.256 437.35 453.333C436.728 452.4 436.417 451.305 436.417 450.05C436.417 449.417 436.494 448.828 436.65 448.283C436.817 447.728 437.05 447.222 437.35 446.766C437.661 446.311 438.039 445.905 438.483 445.55C438.939 445.183 439.45 444.878 440.017 444.633C440.583 444.378 441.206 444.189 441.883 444.066C442.572 443.933 443.306 443.866 444.083 443.866C445.506 443.866 446.745 444.044 447.8 444.4C448.856 444.755 449.695 445.261 450.317 445.916C450.95 446.572 451.328 447.372 451.45 448.317H448.067C447.934 447.883 447.684 447.516 447.317 447.216C446.961 446.916 446.511 446.689 445.967 446.533C445.422 446.366 444.795 446.283 444.083 446.283C443.65 446.283 443.233 446.322 442.833 446.4C442.445 446.478 442.089 446.594 441.767 446.75C441.445 446.894 441.156 447.078 440.9 447.3C440.656 447.511 440.445 447.761 440.267 448.05C440.1 448.328 439.967 448.633 439.867 448.967C439.778 449.3 439.733 449.661 439.733 450.05C439.733 450.828 439.911 451.5 440.267 452.067C440.622 452.622 441.122 453.055 441.767 453.367C442.422 453.667 443.195 453.817 444.083 453.817C444.795 453.817 445.422 453.739 445.967 453.583C446.511 453.417 446.961 453.183 447.317 452.883C447.672 452.583 447.917 452.217 448.05 451.783H451.45C451.328 452.728 450.95 453.533 450.317 454.2C449.695 454.856 448.856 455.361 447.8 455.717C446.756 456.061 445.517 456.233 444.083 456.233ZM458.136 456.233C456.914 456.233 455.87 456.044 455.003 455.667C454.136 455.289 453.475 454.761 453.019 454.083C452.564 453.406 452.336 452.617 452.336 451.717C452.336 451.172 452.419 450.672 452.586 450.217C452.753 449.75 452.997 449.333 453.319 448.967C453.642 448.589 454.036 448.272 454.503 448.017C454.97 447.75 455.503 447.55 456.103 447.416C456.714 447.272 457.392 447.2 458.136 447.2C459.37 447.2 460.414 447.389 461.27 447.767C462.136 448.144 462.797 448.672 463.253 449.35C463.709 450.028 463.936 450.817 463.936 451.717C463.936 452.25 463.853 452.75 463.686 453.217C463.52 453.683 463.275 454.106 462.953 454.483C462.642 454.85 462.247 455.167 461.77 455.433C461.303 455.689 460.764 455.883 460.153 456.017C459.542 456.161 458.87 456.233 458.136 456.233ZM458.136 454.083C458.503 454.083 458.831 454.044 459.12 453.967C459.408 453.889 459.659 453.778 459.87 453.633C460.081 453.478 460.253 453.3 460.386 453.1C460.531 452.9 460.636 452.683 460.703 452.45C460.77 452.217 460.803 451.972 460.803 451.717C460.803 451.283 460.709 450.889 460.52 450.533C460.331 450.178 460.036 449.894 459.636 449.683C459.247 449.461 458.747 449.35 458.136 449.35C457.77 449.35 457.442 449.389 457.153 449.467C456.864 449.544 456.614 449.661 456.403 449.817C456.192 449.961 456.014 450.133 455.87 450.333C455.725 450.522 455.62 450.739 455.553 450.983C455.486 451.217 455.453 451.461 455.453 451.717C455.453 452.139 455.547 452.533 455.736 452.9C455.936 453.256 456.231 453.544 456.62 453.767C457.02 453.978 457.525 454.083 458.136 454.083ZM465.186 456V447.433H468.236V449.8L467.936 449.533C468.136 448.955 468.425 448.5 468.803 448.167C469.181 447.822 469.603 447.578 470.069 447.433C470.536 447.278 470.997 447.2 471.453 447.2C471.986 447.2 472.475 447.283 472.919 447.45C473.364 447.605 473.736 447.861 474.036 448.217C474.336 448.572 474.536 449.028 474.636 449.583L474.203 449.533C474.358 448.978 474.625 448.528 475.003 448.183C475.381 447.839 475.82 447.589 476.32 447.433C476.82 447.278 477.32 447.2 477.82 447.2C478.553 447.2 479.175 447.361 479.686 447.683C480.197 447.994 480.586 448.439 480.853 449.017C481.131 449.583 481.27 450.267 481.27 451.067V456H478.22V451.5C478.22 451.022 478.153 450.633 478.02 450.333C477.897 450.033 477.72 449.817 477.486 449.683C477.253 449.539 476.975 449.467 476.653 449.467C476.297 449.467 475.975 449.55 475.686 449.717C475.397 449.883 475.17 450.128 475.003 450.45C474.836 450.772 474.753 451.172 474.753 451.65V456H471.703V451.5C471.703 450.778 471.558 450.261 471.269 449.95C470.981 449.628 470.603 449.467 470.136 449.467C469.769 449.467 469.442 449.55 469.153 449.717C468.875 449.883 468.653 450.128 468.486 450.45C468.319 450.772 468.236 451.172 468.236 451.65V456H465.186ZM482.732 459.167V447.433H485.782V449.6L485.499 449.033C485.721 448.689 486.021 448.378 486.399 448.1C486.776 447.822 487.238 447.605 487.782 447.45C488.326 447.283 488.949 447.2 489.649 447.2C490.471 447.2 491.232 447.372 491.932 447.717C492.632 448.05 493.199 448.55 493.632 449.217C494.065 449.883 494.282 450.722 494.282 451.733C494.282 452.333 494.199 452.878 494.032 453.367C493.877 453.844 493.649 454.267 493.349 454.633C493.06 454.989 492.721 455.283 492.332 455.517C491.943 455.75 491.521 455.928 491.065 456.05C490.61 456.172 490.138 456.233 489.649 456.233C488.949 456.233 488.326 456.156 487.782 456C487.238 455.833 486.776 455.611 486.399 455.333C486.021 455.056 485.721 454.744 485.499 454.4L485.782 453.833V459.167H482.732ZM488.465 454.083C488.821 454.083 489.138 454.044 489.415 453.967C489.704 453.889 489.954 453.778 490.165 453.633C490.388 453.478 490.571 453.306 490.715 453.117C490.86 452.917 490.971 452.7 491.049 452.467C491.127 452.222 491.165 451.972 491.165 451.717C491.165 451.283 491.06 450.889 490.849 450.533C490.638 450.178 490.332 449.894 489.932 449.683C489.543 449.461 489.054 449.35 488.465 449.35C488.121 449.35 487.804 449.389 487.515 449.467C487.238 449.544 486.988 449.661 486.765 449.817C486.543 449.961 486.354 450.133 486.199 450.333C486.043 450.522 485.926 450.733 485.849 450.967C485.771 451.2 485.732 451.45 485.732 451.717C485.732 452.15 485.838 452.55 486.049 452.917C486.271 453.272 486.582 453.556 486.982 453.767C487.393 453.978 487.888 454.083 488.465 454.083ZM501.008 456.233C499.786 456.233 498.741 456.044 497.875 455.667C497.008 455.289 496.347 454.761 495.891 454.083C495.436 453.406 495.208 452.617 495.208 451.717C495.208 451.172 495.291 450.672 495.458 450.217C495.625 449.75 495.869 449.333 496.191 448.967C496.514 448.589 496.908 448.272 497.375 448.017C497.841 447.75 498.375 447.55 498.975 447.416C499.586 447.272 500.264 447.2 501.008 447.2C502.242 447.2 503.286 447.389 504.142 447.767C505.008 448.144 505.669 448.672 506.125 449.35C506.581 450.028 506.808 450.817 506.808 451.717C506.808 452.25 506.725 452.75 506.558 453.217C506.392 453.683 506.147 454.106 505.825 454.483C505.514 454.85 505.119 455.167 504.642 455.433C504.175 455.689 503.636 455.883 503.025 456.017C502.414 456.161 501.742 456.233 501.008 456.233ZM501.008 454.083C501.375 454.083 501.703 454.044 501.992 453.967C502.28 453.889 502.53 453.778 502.742 453.633C502.953 453.478 503.125 453.3 503.258 453.1C503.403 452.9 503.508 452.683 503.575 452.45C503.642 452.217 503.675 451.972 503.675 451.717C503.675 451.283 503.58 450.889 503.392 450.533C503.203 450.178 502.908 449.894 502.508 449.683C502.119 449.461 501.619 449.35 501.008 449.35C500.642 449.35 500.314 449.389 500.025 449.467C499.736 449.544 499.486 449.661 499.275 449.817C499.064 449.961 498.886 450.133 498.741 450.333C498.597 450.522 498.491 450.739 498.425 450.983C498.358 451.217 498.325 451.461 498.325 451.717C498.325 452.139 498.419 452.533 498.608 452.9C498.808 453.256 499.103 453.544 499.492 453.767C499.892 453.978 500.397 454.083 501.008 454.083ZM512.991 456.233C512.069 456.233 511.28 456.161 510.625 456.017C509.98 455.872 509.447 455.678 509.025 455.433C508.614 455.178 508.302 454.883 508.091 454.55C507.891 454.217 507.769 453.867 507.725 453.5H510.775C510.83 453.644 510.936 453.783 511.091 453.917C511.258 454.039 511.497 454.133 511.808 454.2C512.119 454.267 512.514 454.3 512.991 454.3C513.447 454.3 513.819 454.267 514.108 454.2C514.408 454.133 514.63 454.039 514.775 453.917C514.919 453.783 514.991 453.639 514.991 453.483C514.991 453.317 514.93 453.189 514.808 453.1C514.686 453.011 514.486 452.944 514.208 452.9L511.491 452.567C510.269 452.411 509.375 452.128 508.808 451.717C508.241 451.305 507.958 450.733 507.958 450C507.958 449.578 508.058 449.2 508.258 448.867C508.469 448.522 508.775 448.228 509.175 447.983C509.575 447.728 510.075 447.533 510.675 447.4C511.286 447.266 511.986 447.2 512.775 447.2C513.908 447.2 514.819 447.311 515.508 447.533C516.197 447.744 516.714 448.044 517.058 448.433C517.403 448.822 517.608 449.283 517.675 449.817H514.625C514.603 449.672 514.519 449.55 514.375 449.45C514.23 449.35 514.025 449.272 513.758 449.217C513.491 449.161 513.147 449.133 512.725 449.133C512.336 449.133 512.014 449.167 511.758 449.233C511.514 449.289 511.33 449.372 511.208 449.483C511.086 449.583 511.025 449.705 511.025 449.85C511.025 450.017 511.091 450.144 511.225 450.233C511.369 450.311 511.569 450.372 511.825 450.417L514.925 450.8C515.547 450.878 516.091 451.011 516.558 451.2C517.036 451.389 517.414 451.661 517.691 452.017C517.969 452.361 518.108 452.805 518.108 453.35C518.108 453.828 517.991 454.25 517.758 454.617C517.536 454.972 517.203 455.272 516.758 455.517C516.325 455.761 515.786 455.939 515.141 456.05C514.508 456.172 513.791 456.233 512.991 456.233ZM522.538 456.233C521.426 456.233 520.554 456.006 519.921 455.55C519.299 455.094 518.987 454.467 518.987 453.667C518.987 453.155 519.121 452.717 519.387 452.35C519.654 451.983 520.054 451.683 520.588 451.45C521.121 451.217 521.793 451.067 522.604 451L525.771 450.667C526.026 450.644 526.215 450.583 526.338 450.483C526.471 450.372 526.538 450.233 526.538 450.067V450.05C526.538 449.85 526.454 449.683 526.288 449.55C526.121 449.405 525.888 449.3 525.588 449.233C525.299 449.155 524.949 449.117 524.538 449.117C523.915 449.117 523.426 449.189 523.071 449.333C522.715 449.467 522.499 449.672 522.421 449.95H519.387C519.499 449.35 519.771 448.85 520.204 448.45C520.638 448.039 521.221 447.728 521.954 447.516C522.699 447.305 523.582 447.2 524.604 447.2C525.726 447.2 526.654 447.322 527.388 447.566C528.121 447.8 528.671 448.161 529.038 448.65C529.404 449.139 529.588 449.755 529.588 450.5V456H526.688V453.5L527.004 453.883C526.749 454.406 526.415 454.839 526.004 455.183C525.593 455.528 525.099 455.789 524.521 455.967C523.954 456.144 523.293 456.233 522.538 456.233ZM523.638 454.233C524.049 454.233 524.426 454.183 524.771 454.083C525.126 453.972 525.438 453.828 525.704 453.65C525.971 453.461 526.177 453.244 526.321 453C526.465 452.755 526.538 452.494 526.538 452.217V451.1L527.021 451.8C526.854 451.9 526.632 451.989 526.354 452.067C526.077 452.144 525.715 452.211 525.271 452.267L523.104 452.533C522.771 452.578 522.521 452.667 522.354 452.8C522.199 452.922 522.121 453.1 522.121 453.333C522.121 453.611 522.249 453.833 522.504 454C522.771 454.156 523.149 454.233 523.638 454.233ZM537.973 456.233C537.284 456.233 536.667 456.156 536.123 456C535.578 455.833 535.117 455.611 534.739 455.333C534.362 455.056 534.062 454.744 533.839 454.4L534.106 453.833V456H531.056V444.1H534.106V449.6L533.839 449.033C534.062 448.689 534.362 448.378 534.739 448.1C535.117 447.822 535.578 447.605 536.123 447.45C536.667 447.283 537.284 447.2 537.973 447.2C538.795 447.2 539.556 447.366 540.256 447.7C540.967 448.033 541.54 448.533 541.973 449.2C542.406 449.855 542.623 450.689 542.623 451.7C542.623 452.3 542.54 452.844 542.373 453.333C542.206 453.811 541.979 454.233 541.69 454.6C541.401 454.967 541.062 455.272 540.673 455.517C540.284 455.75 539.856 455.928 539.39 456.05C538.934 456.172 538.462 456.233 537.973 456.233ZM536.823 454.083C537.167 454.083 537.478 454.044 537.756 453.967C538.045 453.889 538.295 453.778 538.506 453.633C538.728 453.478 538.912 453.306 539.056 453.117C539.212 452.917 539.323 452.7 539.39 452.467C539.467 452.222 539.506 451.972 539.506 451.717C539.506 451.272 539.401 450.872 539.19 450.517C538.978 450.161 538.673 449.878 538.273 449.667C537.884 449.455 537.401 449.35 536.823 449.35C536.478 449.35 536.156 449.389 535.856 449.467C535.567 449.544 535.312 449.661 535.089 449.817C534.867 449.961 534.684 450.133 534.539 450.333C534.395 450.522 534.284 450.733 534.206 450.967C534.128 451.2 534.089 451.45 534.089 451.717C534.089 452.139 534.195 452.533 534.406 452.9C534.617 453.256 534.928 453.544 535.339 453.767C535.751 453.978 536.245 454.083 536.823 454.083ZM543.866 456V444.1H546.916V456H543.866ZM553.921 456.233C552.71 456.233 551.677 456.044 550.821 455.667C549.965 455.289 549.31 454.761 548.854 454.083C548.41 453.394 548.188 452.605 548.188 451.717C548.188 451.172 548.265 450.672 548.421 450.217C548.588 449.75 548.827 449.333 549.138 448.967C549.46 448.589 549.854 448.272 550.321 448.017C550.788 447.75 551.321 447.55 551.921 447.416C552.521 447.272 553.182 447.2 553.904 447.2C554.793 447.2 555.582 447.3 556.271 447.5C556.971 447.7 557.56 448.017 558.038 448.45C558.516 448.872 558.877 449.405 559.121 450.05C559.366 450.694 559.482 451.461 559.471 452.35H550.138V450.817H556.388C556.332 450.55 556.232 450.317 556.088 450.117C555.954 449.917 555.777 449.75 555.554 449.617C555.343 449.472 555.099 449.367 554.821 449.3C554.543 449.233 554.232 449.2 553.888 449.2C553.532 449.2 553.204 449.244 552.904 449.333C552.616 449.411 552.36 449.522 552.138 449.667C551.916 449.811 551.732 449.989 551.588 450.2C551.454 450.4 551.349 450.628 551.271 450.883C551.193 451.139 551.154 451.417 551.154 451.717C551.154 452.205 551.254 452.639 551.454 453.017C551.666 453.394 551.977 453.694 552.388 453.917C552.81 454.128 553.327 454.233 553.938 454.233C554.471 454.233 554.927 454.172 555.304 454.05C555.693 453.917 555.988 453.722 556.188 453.467H559.355C559.221 453.967 558.949 454.428 558.538 454.85C558.127 455.272 557.543 455.611 556.788 455.867C556.043 456.111 555.088 456.233 553.921 456.233ZM568.632 456.233C567.521 456.233 566.649 456.006 566.015 455.55C565.393 455.094 565.082 454.467 565.082 453.667C565.082 453.155 565.215 452.717 565.482 452.35C565.749 451.983 566.149 451.683 566.682 451.45C567.216 451.217 567.888 451.067 568.699 451L571.866 450.667C572.121 450.644 572.31 450.583 572.432 450.483C572.566 450.372 572.632 450.233 572.632 450.067V450.05C572.632 449.85 572.549 449.683 572.382 449.55C572.216 449.405 571.982 449.3 571.682 449.233C571.393 449.155 571.043 449.117 570.632 449.117C570.01 449.117 569.521 449.189 569.166 449.333C568.81 449.467 568.593 449.672 568.516 449.95H565.482C565.593 449.35 565.865 448.85 566.299 448.45C566.732 448.039 567.316 447.728 568.049 447.516C568.793 447.305 569.677 447.2 570.699 447.2C571.821 447.2 572.749 447.322 573.482 447.566C574.216 447.8 574.766 448.161 575.132 448.65C575.499 449.139 575.682 449.755 575.682 450.5V456H572.782V453.5L573.099 453.883C572.843 454.406 572.51 454.839 572.099 455.183C571.688 455.528 571.193 455.789 570.616 455.967C570.049 456.144 569.388 456.233 568.632 456.233ZM569.732 454.233C570.143 454.233 570.521 454.183 570.866 454.083C571.221 453.972 571.532 453.828 571.799 453.65C572.066 453.461 572.271 453.244 572.416 453C572.56 452.755 572.632 452.494 572.632 452.217V451.1L573.116 451.8C572.949 451.9 572.727 451.989 572.449 452.067C572.171 452.144 571.81 452.211 571.366 452.267L569.199 452.533C568.866 452.578 568.616 452.667 568.449 452.8C568.293 452.922 568.216 453.1 568.216 453.333C568.216 453.611 568.343 453.833 568.599 454C568.866 454.156 569.243 454.233 569.732 454.233ZM580.951 456.233C580.306 456.233 579.74 456.144 579.251 455.967C578.773 455.778 578.367 455.511 578.034 455.167C577.712 454.811 577.467 454.383 577.301 453.883C577.134 453.372 577.051 452.794 577.051 452.15V447.433H580.101V451.533C580.101 452.033 580.179 452.467 580.334 452.833C580.49 453.2 580.729 453.483 581.051 453.683C581.373 453.872 581.779 453.967 582.268 453.967C582.801 453.967 583.251 453.861 583.618 453.65C583.995 453.439 584.279 453.15 584.468 452.783C584.668 452.417 584.768 451.983 584.768 451.483V447.433H587.818V456H584.768V453.6L585.051 454.083C584.718 454.75 584.201 455.278 583.501 455.667C582.801 456.044 581.951 456.233 580.951 456.233ZM593.757 456C592.846 456 592.124 455.756 591.591 455.267C591.057 454.778 590.791 454.094 590.791 453.217V445.116H593.841V452.717C593.841 453.128 593.946 453.444 594.157 453.667C594.38 453.889 594.702 454 595.124 454H596.807V456H593.757ZM588.807 449.4V447.433H591.057V449.4H588.807ZM593.574 449.4V447.433H596.807V449.4H593.574ZM598.277 456V444.1H601.328V449.833L601.028 449.367C601.283 448.922 601.594 448.539 601.961 448.217C602.339 447.883 602.789 447.633 603.311 447.466C603.833 447.289 604.433 447.2 605.111 447.2C605.944 447.2 606.644 447.361 607.211 447.683C607.789 448.005 608.228 448.472 608.528 449.083C608.828 449.683 608.978 450.411 608.978 451.267V456H605.928V451.9C605.928 451.144 605.761 450.55 605.428 450.117C605.094 449.683 604.544 449.467 603.778 449.467C603.278 449.467 602.844 449.572 602.478 449.783C602.111 449.983 601.828 450.272 601.628 450.65C601.428 451.017 601.328 451.45 601.328 451.95V456H598.277ZM615.869 456.233C614.658 456.233 613.624 456.044 612.769 455.667C611.913 455.289 611.258 454.761 610.802 454.083C610.358 453.394 610.136 452.605 610.136 451.717C610.136 451.172 610.213 450.672 610.369 450.217C610.536 449.75 610.774 449.333 611.086 448.967C611.408 448.589 611.802 448.272 612.269 448.017C612.736 447.75 613.269 447.55 613.869 447.416C614.469 447.272 615.13 447.2 615.852 447.2C616.741 447.2 617.53 447.3 618.219 447.5C618.919 447.7 619.508 448.017 619.986 448.45C620.463 448.872 620.825 449.405 621.069 450.05C621.314 450.694 621.43 451.461 621.419 452.35H612.086V450.817H618.336C618.28 450.55 618.18 450.317 618.036 450.117C617.902 449.917 617.725 449.75 617.502 449.617C617.291 449.472 617.047 449.367 616.769 449.3C616.491 449.233 616.18 449.2 615.836 449.2C615.48 449.2 615.152 449.244 614.852 449.333C614.563 449.411 614.308 449.522 614.086 449.667C613.863 449.811 613.68 449.989 613.536 450.2C613.402 450.4 613.297 450.628 613.219 450.883C613.141 451.139 613.102 451.417 613.102 451.717C613.102 452.205 613.202 452.639 613.402 453.017C613.613 453.394 613.924 453.694 614.336 453.917C614.758 454.128 615.275 454.233 615.886 454.233C616.419 454.233 616.875 454.172 617.252 454.05C617.641 453.917 617.936 453.722 618.136 453.467H621.302C621.169 453.967 620.897 454.428 620.486 454.85C620.075 455.272 619.491 455.611 618.736 455.867C617.991 456.111 617.036 456.233 615.869 456.233ZM622.692 456V447.433H625.742V449.833L625.459 449.35C625.692 448.905 626.004 448.522 626.392 448.2C626.792 447.878 627.265 447.633 627.809 447.466C628.354 447.289 628.959 447.2 629.626 447.2C630.293 447.2 630.87 447.289 631.359 447.466C631.859 447.644 632.276 447.911 632.609 448.267C632.954 448.622 633.209 449.055 633.376 449.567C633.554 450.067 633.643 450.633 633.643 451.267V456H630.576V451.9C630.576 451.389 630.493 450.955 630.326 450.6C630.159 450.233 629.909 449.955 629.576 449.767C629.243 449.567 628.82 449.467 628.309 449.467C627.765 449.467 627.298 449.572 626.909 449.783C626.531 449.983 626.242 450.272 626.042 450.65C625.842 451.017 625.742 451.45 625.742 451.95V456H622.692ZM639.478 456C638.567 456 637.844 455.756 637.311 455.267C636.778 454.778 636.511 454.094 636.511 453.217V445.116H639.561V452.717C639.561 453.128 639.667 453.444 639.878 453.667C640.1 453.889 640.422 454 640.844 454H642.528V456H639.478ZM634.528 449.4V447.433H636.778V449.4H634.528ZM639.294 449.4V447.433H642.528V449.4H639.294ZM643.949 456V447.433H646.999V456H643.949ZM643.933 446.4V444.1H647.016V446.4H643.933ZM654.071 456.233C652.838 456.233 651.788 456.044 650.921 455.667C650.066 455.289 649.41 454.761 648.954 454.083C648.499 453.394 648.271 452.605 648.271 451.717C648.271 451.172 648.349 450.672 648.504 450.217C648.671 449.75 648.916 449.333 649.238 448.967C649.571 448.589 649.971 448.272 650.438 448.017C650.904 447.75 651.443 447.55 652.054 447.416C652.666 447.272 653.338 447.2 654.071 447.2C655.171 447.2 656.11 447.328 656.888 447.583C657.677 447.839 658.293 448.211 658.738 448.7C659.193 449.178 659.477 449.767 659.588 450.467H656.421C656.321 450.233 656.16 450.033 655.938 449.867C655.716 449.7 655.449 449.572 655.138 449.483C654.827 449.394 654.466 449.35 654.054 449.35C653.699 449.35 653.377 449.389 653.088 449.467C652.799 449.533 652.549 449.639 652.338 449.783C652.127 449.928 651.949 450.1 651.804 450.3C651.671 450.489 651.566 450.705 651.488 450.95C651.421 451.183 651.388 451.439 651.388 451.717C651.388 452.161 651.482 452.567 651.671 452.933C651.871 453.289 652.166 453.572 652.554 453.783C652.954 453.983 653.454 454.083 654.054 454.083C654.666 454.083 655.166 453.978 655.555 453.767C655.943 453.544 656.232 453.283 656.421 452.983H659.588C659.488 453.639 659.21 454.211 658.755 454.7C658.299 455.178 657.677 455.556 656.888 455.833C656.11 456.1 655.171 456.233 654.071 456.233ZM664.061 456.233C662.949 456.233 662.077 456.006 661.444 455.55C660.822 455.094 660.51 454.467 660.51 453.667C660.51 453.155 660.644 452.717 660.91 452.35C661.177 451.983 661.577 451.683 662.111 451.45C662.644 451.217 663.316 451.067 664.127 451L667.294 450.667C667.55 450.644 667.738 450.583 667.861 450.483C667.994 450.372 668.061 450.233 668.061 450.067V450.05C668.061 449.85 667.977 449.683 667.811 449.55C667.644 449.405 667.411 449.3 667.111 449.233C666.822 449.155 666.472 449.117 666.061 449.117C665.438 449.117 664.949 449.189 664.594 449.333C664.238 449.467 664.022 449.672 663.944 449.95H660.91C661.022 449.35 661.294 448.85 661.727 448.45C662.161 448.039 662.744 447.728 663.477 447.516C664.222 447.305 665.105 447.2 666.127 447.2C667.25 447.2 668.177 447.322 668.911 447.566C669.644 447.8 670.194 448.161 670.561 448.65C670.927 449.139 671.111 449.755 671.111 450.5V456H668.211V453.5L668.527 453.883C668.272 454.406 667.938 454.839 667.527 455.183C667.116 455.528 666.622 455.789 666.044 455.967C665.477 456.144 664.816 456.233 664.061 456.233ZM665.161 454.233C665.572 454.233 665.949 454.183 666.294 454.083C666.649 453.972 666.961 453.828 667.227 453.65C667.494 453.461 667.7 453.244 667.844 453C667.988 452.755 668.061 452.494 668.061 452.217V451.1L668.544 451.8C668.377 451.9 668.155 451.989 667.877 452.067C667.6 452.144 667.238 452.211 666.794 452.267L664.627 452.533C664.294 452.578 664.044 452.667 663.877 452.8C663.722 452.922 663.644 453.1 663.644 453.333C663.644 453.611 663.772 453.833 664.027 454C664.294 454.156 664.672 454.233 665.161 454.233ZM676.783 456C675.872 456 675.15 455.756 674.616 455.267C674.083 454.778 673.816 454.094 673.816 453.217V445.116H676.866V452.717C676.866 453.128 676.972 453.444 677.183 453.667C677.405 453.889 677.728 454 678.15 454H679.833V456H676.783ZM671.833 449.4V447.433H674.083V449.4H671.833ZM676.6 449.4V447.433H679.833V449.4H676.6ZM681.255 456V447.433H684.305V456H681.255ZM681.238 446.4V444.1H684.322V446.4H681.238ZM691.377 456.233C690.154 456.233 689.11 456.044 688.243 455.667C687.377 455.289 686.715 454.761 686.26 454.083C685.804 453.406 685.576 452.617 685.576 451.717C685.576 451.172 685.66 450.672 685.826 450.217C685.993 449.75 686.238 449.333 686.56 448.967C686.882 448.589 687.277 448.272 687.743 448.017C688.21 447.75 688.743 447.55 689.343 447.416C689.954 447.272 690.632 447.2 691.377 447.2C692.61 447.2 693.654 447.389 694.51 447.767C695.377 448.144 696.038 448.672 696.493 449.35C696.949 450.028 697.177 450.817 697.177 451.717C697.177 452.25 697.093 452.75 696.927 453.217C696.76 453.683 696.516 454.106 696.193 454.483C695.882 454.85 695.488 455.167 695.01 455.433C694.543 455.689 694.004 455.883 693.393 456.017C692.782 456.161 692.11 456.233 691.377 456.233ZM691.377 454.083C691.743 454.083 692.071 454.044 692.36 453.967C692.649 453.889 692.899 453.778 693.11 453.633C693.321 453.478 693.493 453.3 693.627 453.1C693.771 452.9 693.877 452.683 693.943 452.45C694.01 452.217 694.043 451.972 694.043 451.717C694.043 451.283 693.949 450.889 693.76 450.533C693.571 450.178 693.277 449.894 692.877 449.683C692.488 449.461 691.988 449.35 691.377 449.35C691.01 449.35 690.682 449.389 690.393 449.467C690.104 449.544 689.854 449.661 689.643 449.817C689.432 449.961 689.254 450.133 689.11 450.333C688.965 450.522 688.86 450.739 688.793 450.983C688.727 451.217 688.693 451.461 688.693 451.717C688.693 452.139 688.788 452.533 688.977 452.9C689.177 453.256 689.471 453.544 689.86 453.767C690.26 453.978 690.765 454.083 691.377 454.083ZM698.426 456V447.433H701.476V449.833L701.193 449.35C701.426 448.905 701.738 448.522 702.126 448.2C702.526 447.878 702.999 447.633 703.543 447.466C704.088 447.289 704.693 447.2 705.36 447.2C706.026 447.2 706.604 447.289 707.093 447.466C707.593 447.644 708.01 447.911 708.343 448.267C708.688 448.622 708.943 449.055 709.11 449.567C709.288 450.067 709.377 450.633 709.377 451.267V456H706.31V451.9C706.31 451.389 706.226 450.955 706.06 450.6C705.893 450.233 705.643 449.955 705.31 449.767C704.976 449.567 704.554 449.467 704.043 449.467C703.499 449.467 703.032 449.572 702.643 449.783C702.265 449.983 701.976 450.272 701.776 450.65C701.576 451.017 701.476 451.45 701.476 451.95V456H698.426ZM716.866 456V447.133C716.866 446.5 716.988 445.961 717.232 445.516C717.477 445.061 717.827 444.711 718.282 444.466C718.738 444.222 719.282 444.1 719.916 444.1H722.583V446.1H721.049C720.694 446.1 720.41 446.205 720.199 446.416C719.999 446.616 719.899 446.889 719.899 447.233V456H716.866ZM714.949 449.4V447.433H717.132V449.4H714.949ZM719.632 449.4V447.433H722.583V449.4H719.632ZM728.926 456.233C727.704 456.233 726.659 456.044 725.793 455.667C724.926 455.289 724.265 454.761 723.809 454.083C723.354 453.406 723.126 452.617 723.126 451.717C723.126 451.172 723.209 450.672 723.376 450.217C723.543 449.75 723.787 449.333 724.109 448.967C724.432 448.589 724.826 448.272 725.293 448.017C725.759 447.75 726.293 447.55 726.893 447.416C727.504 447.272 728.182 447.2 728.926 447.2C730.16 447.2 731.204 447.389 732.06 447.767C732.926 448.144 733.587 448.672 734.043 449.35C734.498 450.028 734.726 450.817 734.726 451.717C734.726 452.25 734.643 452.75 734.476 453.217C734.31 453.683 734.065 454.106 733.743 454.483C733.432 454.85 733.037 455.167 732.56 455.433C732.093 455.689 731.554 455.883 730.943 456.017C730.332 456.161 729.66 456.233 728.926 456.233ZM728.926 454.083C729.293 454.083 729.621 454.044 729.91 453.967C730.198 453.889 730.448 453.778 730.66 453.633C730.871 453.478 731.043 453.3 731.176 453.1C731.321 452.9 731.426 452.683 731.493 452.45C731.56 452.217 731.593 451.972 731.593 451.717C731.593 451.283 731.498 450.889 731.31 450.533C731.121 450.178 730.826 449.894 730.426 449.683C730.037 449.461 729.537 449.35 728.926 449.35C728.559 449.35 728.232 449.389 727.943 449.467C727.654 449.544 727.404 449.661 727.193 449.817C726.982 449.961 726.804 450.133 726.659 450.333C726.515 450.522 726.409 450.739 726.343 450.983C726.276 451.217 726.243 451.461 726.243 451.717C726.243 452.139 726.337 452.533 726.526 452.9C726.726 453.256 727.021 453.544 727.409 453.767C727.809 453.978 728.315 454.083 728.926 454.083ZM735.976 456V447.433H739.026V450.633L738.776 450.567C738.954 449.8 739.187 449.189 739.476 448.733C739.776 448.267 740.154 447.933 740.609 447.733C741.065 447.533 741.62 447.433 742.276 447.433H743.076V450.033H741.893C741.326 450.033 740.826 450.161 740.393 450.417C739.959 450.672 739.62 451.033 739.376 451.5C739.143 451.955 739.026 452.478 739.026 453.067V456H735.976ZM755.496 456.233C754.563 456.233 753.685 456.089 752.863 455.8C752.041 455.511 751.313 455.1 750.68 454.567C750.046 454.033 749.546 453.383 749.18 452.617C748.824 451.85 748.646 450.994 748.646 450.05C748.646 449.417 748.724 448.828 748.88 448.283C749.046 447.728 749.285 447.222 749.596 446.766C749.907 446.3 750.285 445.889 750.73 445.533C751.185 445.178 751.696 444.878 752.263 444.633C752.841 444.378 753.469 444.189 754.146 444.066C754.824 443.933 755.557 443.866 756.346 443.866C757.369 443.866 758.296 443.966 759.13 444.166C759.963 444.355 760.691 444.633 761.313 445C761.935 445.355 762.435 445.783 762.813 446.283C763.202 446.772 763.441 447.322 763.53 447.933H760.13C760.008 447.655 759.78 447.389 759.446 447.133C759.124 446.878 758.708 446.672 758.196 446.516C757.685 446.361 757.063 446.283 756.33 446.283C755.885 446.283 755.469 446.322 755.08 446.4C754.691 446.478 754.335 446.594 754.013 446.75C753.691 446.894 753.402 447.078 753.146 447.3C752.891 447.511 752.674 447.755 752.496 448.033C752.33 448.311 752.196 448.622 752.096 448.967C752.007 449.3 751.963 449.661 751.963 450.05C751.963 450.828 752.141 451.5 752.496 452.067C752.852 452.622 753.357 453.055 754.013 453.367C754.669 453.667 755.441 453.817 756.33 453.817C756.908 453.817 757.446 453.75 757.946 453.617C758.458 453.483 758.902 453.278 759.28 453C759.658 452.722 759.958 452.372 760.18 451.95C760.413 451.517 760.552 451.011 760.596 450.433L761.446 451.733H756.546V449.617H763.58V456H760.546V453.133L760.863 453.567C760.541 454.144 760.119 454.633 759.596 455.033C759.085 455.422 758.485 455.722 757.796 455.933C757.108 456.133 756.341 456.233 755.496 456.233ZM770.838 456.233C769.616 456.233 768.571 456.044 767.704 455.667C766.838 455.289 766.177 454.761 765.721 454.083C765.265 453.406 765.038 452.617 765.038 451.717C765.038 451.172 765.121 450.672 765.288 450.217C765.454 449.75 765.699 449.333 766.021 448.967C766.343 448.589 766.738 448.272 767.204 448.017C767.671 447.75 768.204 447.55 768.804 447.416C769.416 447.272 770.093 447.2 770.838 447.2C772.071 447.2 773.116 447.389 773.971 447.767C774.838 448.144 775.499 448.672 775.955 449.35C776.41 450.028 776.638 450.817 776.638 451.717C776.638 452.25 776.555 452.75 776.388 453.217C776.221 453.683 775.977 454.106 775.655 454.483C775.343 454.85 774.949 455.167 774.471 455.433C774.005 455.689 773.466 455.883 772.855 456.017C772.243 456.161 771.571 456.233 770.838 456.233ZM770.838 454.083C771.204 454.083 771.532 454.044 771.821 453.967C772.11 453.889 772.36 453.778 772.571 453.633C772.782 453.478 772.955 453.3 773.088 453.1C773.232 452.9 773.338 452.683 773.405 452.45C773.471 452.217 773.505 451.972 773.505 451.717C773.505 451.283 773.41 450.889 773.221 450.533C773.032 450.178 772.738 449.894 772.338 449.683C771.949 449.461 771.449 449.35 770.838 449.35C770.471 449.35 770.143 449.389 769.854 449.467C769.566 449.544 769.316 449.661 769.104 449.817C768.893 449.961 768.716 450.133 768.571 450.333C768.427 450.522 768.321 450.739 768.254 450.983C768.188 451.217 768.154 451.461 768.154 451.717C768.154 452.139 768.249 452.533 768.438 452.9C768.638 453.256 768.932 453.544 769.321 453.767C769.721 453.978 770.227 454.083 770.838 454.083Z" fill="white"/>
</g>
<defs>
<clipPath id="clip0_2003_2">
<rect width="1200" height="630" fill="white"/>
</clipPath>
</defs>
</svg>
